<svg xmlns="http://www.w3.org/2000/svg" width="71" height="83"><defs><linearGradient id="a" x1="80.275%" x2="21.469%" y1="64.296%" y2="32.168%"><stop offset="0%" stop-color="#1A237E" stop-opacity=".01"/><stop offset="100%" stop-color="#1A237E" stop-opacity=".3"/></linearGradient></defs><g fill="none"><path fill="#E1BEE7" d="M36.37 25.576c-5.872 0-10.996 3.224-13.736 7.988l10.818 6.269a5.921 5.921 0 0 0 5.872 0l10.783-6.269c-2.74-4.764-7.865-7.988-13.737-7.988z"/><path fill="#FAFAFA" d="M33.452 39.833l-10.818-6.269a16.036 16.036 0 0 0-2.136 7.988c0 8.812 7.082 15.977 15.872 15.977 8.755 0 15.872-7.129 15.872-15.977a16.03 16.03 0 0 0-2.135-7.988l-10.783 6.269c-1.85 1.075-4.057 1.075-5.872 0z"/><path fill="#7B1FA2" d="M69.894 61.039L50.107 49.54c-2.74 4.765-7.865 7.989-13.737 7.989v25.325c.926 0 1.851-.25 2.705-.716l30.854-17.91h.036c1.174-.753 1.103-2.508-.071-3.189z"/><path fill="#4A148C" d="M36.37 57.529c-5.872 0-10.996-3.224-13.736-7.989L.854 62.185a5.372 5.372 0 0 0 1.993 2.006l30.854 17.91c.819.502 1.78.717 2.705.717l-.036-25.29z"/><path fill="#7B1FA2" d="M36.37 25.576V.251c-.925 0-1.85.25-2.704.716L2.81 18.877a5.95 5.95 0 0 0-1.99 2.008L22.6 33.529c2.775-4.728 7.9-7.952 13.771-7.952z"/><path fill="#4A148C" d="M69.93 18.95c0-.037 0-.037 0 0L39.04 1.002c-.82-.501-1.78-.715-2.706-.715v25.325c5.872 0 10.996 3.224 13.737 7.988l19.786-11.498c1.21-.717 1.281-2.472.071-3.153z"/><path fill="#BA68C8" d="M20.498 41.552c0-2.901.783-5.624 2.136-7.988L.854 20.92a5.546 5.546 0 0 0-.712 2.723v35.82c0 .968.25 1.9.712 2.723l21.78-12.645a16.036 16.036 0 0 1-2.136-7.988z"/><path fill="url(#a)" d="M50.107 49.54c-2.74 4.765-7.865 7.989-13.737 7.989-2.348 0-4.59-.502-6.583-1.433L56.833 71.82l13.096-7.594c1.21-.716 1.21-2.472 0-3.152L50.107 49.54z"/></g></svg>