<svg xmlns="http://www.w3.org/2000/svg" viewBox="0 0 621.26 569.88"><defs><style>.cls-1,.cls-2{fill:red;}.cls-2,.cls-3,.cls-5{font-size:24px;font-family:NotoMonoForPowerline, Noto Mono for Powerline;}.cls-3,.cls-6{fill:#fffdfd;}.cls-4,.cls-8{fill:none;stroke-miterlimit:10;}.cls-4{stroke:#fff;}.cls-5,.cls-7{fill:#fff;}.cls-8{stroke:red;}.cls-9{fill:#69b42d;}</style></defs><g id="Layer_2" data-name="Layer 2"><g id="Layer_1-2" data-name="Layer 1"><path class="cls-1" d="M27.43,332.57H16.76v-1.83l4.1-4.47a26.16,26.16,0,0,0,3-3.72,5.11,5.11,0,0,0,.73-2.7,2.86,2.86,0,0,0-.75-2.09,2.66,2.66,0,0,0-2-.77,5.69,5.69,0,0,0-3.72,1.61l-1.2-1.4a7.27,7.27,0,0,1,4.95-2,5,5,0,0,1,3.58,1.24,4.37,4.37,0,0,1,1.32,3.34,6.57,6.57,0,0,1-.7,2.86A20.6,20.6,0,0,1,22.66,327l-3.29,3.51v.09h8.06Z"/><path class="cls-1" d="M31.32,331.87v-2A7.48,7.48,0,0,0,35.54,331c2.63,0,3.94-1.22,3.94-3.68q0-3.44-4-3.44a15.93,15.93,0,0,0-2.71.3l-1.05-.66.64-8.07h8.09v1.95H34.18l-.45,4.91a13,13,0,0,1,2.45-.24,5.74,5.74,0,0,1,4,1.35,4.62,4.62,0,0,1,1.52,3.67,5.49,5.49,0,0,1-1.62,4.24,6.46,6.46,0,0,1-4.55,1.49A8.12,8.12,0,0,1,31.32,331.87Z"/><path class="cls-1" d="M55,315.41v1.82a6,6,0,0,0-2-.29,4.74,4.74,0,0,0-3.94,1.66c-.88,1.1-1.36,2.84-1.43,5.24h.14a3.81,3.81,0,0,1,3.59-2,4.63,4.63,0,0,1,3.58,1.4,5.35,5.35,0,0,1,1.3,3.81,6,6,0,0,1-1.41,4.21,5.31,5.31,0,0,1-7.87-.43,9,9,0,0,1-1.51-5.59q0-10,7.48-10.05A7.58,7.58,0,0,1,55,315.41Zm-.77,11.64a3.82,3.82,0,0,0-.81-2.62,2.88,2.88,0,0,0-2.29-.91,3.5,3.5,0,0,0-2.49,1,2.87,2.87,0,0,0-1,2.17,5,5,0,0,0,1,3.07,2.92,2.92,0,0,0,2.48,1.3,2.86,2.86,0,0,0,2.33-1A4.54,4.54,0,0,0,54.25,327.05Z"/><path class="cls-1" d="M16.92,357.87v-2A7.45,7.45,0,0,0,21.14,357c2.63,0,3.94-1.22,3.94-3.68,0-2.29-1.35-3.44-4-3.44a15.93,15.93,0,0,0-2.71.3l-1.05-.66.64-8.07H26v1.95H19.78l-.46,4.91a13.11,13.11,0,0,1,2.45-.24,5.76,5.76,0,0,1,4,1.35,4.65,4.65,0,0,1,1.52,3.67,5.49,5.49,0,0,1-1.62,4.24,6.5,6.5,0,0,1-4.56,1.49A8.05,8.05,0,0,1,16.92,357.87Z"/><path class="cls-1" d="M38.19,358.57H36.13v-10.7q0-1.44.09-4.23A15.85,15.85,0,0,1,34.8,345l-1.72,1.42L32,344.94l4.48-3.51h1.76Z"/><path class="cls-1" d="M56.24,358.57H45.56v-1.83l4.1-4.47a26.43,26.43,0,0,0,3-3.72,5.2,5.2,0,0,0,.72-2.7,2.9,2.9,0,0,0-.74-2.09,2.69,2.69,0,0,0-2-.77,5.73,5.73,0,0,0-3.73,1.61l-1.19-1.4a7.25,7.25,0,0,1,4.94-2,5,5,0,0,1,3.59,1.24,4.4,4.4,0,0,1,1.31,3.34,6.7,6.7,0,0,1-.69,2.86A21,21,0,0,1,51.47,353l-3.29,3.51v.09h8.06Z"/><path class="cls-1" d="M27.43,410.57H16.76v-1.83l4.1-4.47a26.16,26.16,0,0,0,3-3.72,5.11,5.11,0,0,0,.73-2.7,2.86,2.86,0,0,0-.75-2.09,2.66,2.66,0,0,0-2-.77,5.69,5.69,0,0,0-3.72,1.61l-1.2-1.4a7.27,7.27,0,0,1,4.95-2,5,5,0,0,1,3.58,1.24,4.37,4.37,0,0,1,1.32,3.34,6.57,6.57,0,0,1-.7,2.86A20.6,20.6,0,0,1,22.66,405l-3.29,3.51v.09h8.06Z"/><path class="cls-1" d="M31.32,409.87v-2A7.48,7.48,0,0,0,35.54,409c2.63,0,3.94-1.22,3.94-3.68q0-3.44-4-3.44a15.93,15.93,0,0,0-2.71.3l-1.05-.66.64-8.07h8.09v1.95H34.18l-.45,4.91a13,13,0,0,1,2.45-.24,5.74,5.74,0,0,1,4,1.35,4.62,4.62,0,0,1,1.52,3.67,5.49,5.49,0,0,1-1.62,4.24,6.46,6.46,0,0,1-4.55,1.49A8.12,8.12,0,0,1,31.32,409.87Z"/><path class="cls-1" d="M55,393.41v1.82a6,6,0,0,0-2-.29,4.74,4.74,0,0,0-3.94,1.66c-.88,1.1-1.36,2.84-1.43,5.24h.14a3.81,3.81,0,0,1,3.59-2,4.63,4.63,0,0,1,3.58,1.4,5.35,5.35,0,0,1,1.3,3.81,6,6,0,0,1-1.41,4.21,5.31,5.31,0,0,1-7.87-.43,9,9,0,0,1-1.51-5.59q0-10,7.48-10.05A7.58,7.58,0,0,1,55,393.41Zm-.77,11.64a3.82,3.82,0,0,0-.81-2.62,2.88,2.88,0,0,0-2.29-.91,3.5,3.5,0,0,0-2.49,1,2.87,2.87,0,0,0-1,2.17,5,5,0,0,0,1,3.07,2.92,2.92,0,0,0,2.48,1.3,2.86,2.86,0,0,0,2.33-1A4.54,4.54,0,0,0,54.25,405.05Z"/><path class="cls-1" d="M16.92,435.87v-2A7.45,7.45,0,0,0,21.14,435c2.63,0,3.94-1.22,3.94-3.68,0-2.29-1.35-3.44-4-3.44a15.93,15.93,0,0,0-2.71.3l-1.05-.66.64-8.07H26v1.95H19.78l-.46,4.91a13.11,13.11,0,0,1,2.45-.24,5.76,5.76,0,0,1,4,1.35,4.65,4.65,0,0,1,1.52,3.67,5.49,5.49,0,0,1-1.62,4.24,6.5,6.5,0,0,1-4.56,1.49A8.05,8.05,0,0,1,16.92,435.87Z"/><path class="cls-1" d="M38.19,436.57H36.13v-10.7q0-1.44.09-4.23A15.85,15.85,0,0,1,34.8,423l-1.72,1.42L32,422.94l4.48-3.51h1.76Z"/><path class="cls-1" d="M56.24,436.57H45.56v-1.83l4.1-4.47a26.43,26.43,0,0,0,3-3.72,5.2,5.2,0,0,0,.72-2.7,2.9,2.9,0,0,0-.74-2.09,2.69,2.69,0,0,0-2-.77,5.73,5.73,0,0,0-3.73,1.61l-1.19-1.4a7.25,7.25,0,0,1,4.94-2,5,5,0,0,1,3.59,1.24,4.4,4.4,0,0,1,1.31,3.34,6.7,6.7,0,0,1-.69,2.86A21,21,0,0,1,51.47,431l-3.29,3.51v.09h8.06Z"/><polygon class="cls-1" points="7.29 359.95 0 359.95 0 313.89 7.29 313.89 7.29 314.89 1 314.89 1 358.95 7.29 358.95 7.29 359.95"/><polygon class="cls-1" points="73.02 359.95 65.73 359.95 65.73 358.95 72.02 358.95 72.02 314.89 65.73 314.89 65.73 313.89 73.02 313.89 73.02 359.95"/><text class="cls-2" transform="translate(79.15 346.04)">×4</text><polygon class="cls-1" points="7.29 437.97 0 437.97 0 391.91 7.29 391.91 7.29 392.91 1 392.91 1 436.97 7.29 436.97 7.29 437.97"/><polygon class="cls-1" points="73.02 437.97 65.73 437.97 65.73 436.97 72.02 436.97 72.02 392.91 65.73 392.91 65.73 391.91 73.02 391.91 73.02 437.97"/><text class="cls-2" transform="translate(79.15 424.06)">×3</text><text class="cls-3" transform="translate(168.17 20.57)">32<tspan x="0" y="26">64</tspan><tspan x="-7.2" y="52">128</tspan><tspan x="0" y="78">64</tspan><tspan x="-7.2" y="104">128</tspan><tspan x="-7.2" y="130">256</tspan><tspan x="-7.2" y="156">128</tspan><tspan x="-7.2" y="182">256</tspan><tspan x="-7.2" y="208">512</tspan><tspan x="-7.2" y="234">256</tspan><tspan x="-7.2" y="260">512</tspan><tspan x="-14.4" y="286">1024</tspan><tspan x="-7.2" y="312">512</tspan><tspan x="-14.4" y="338">1024</tspan><tspan x="-7.2" y="390">512</tspan><tspan x="-14.4" y="416">1024</tspan><tspan x="0" y="442">27</tspan></text><polyline class="cls-4" points="153.36 2.3 146.57 2.3 146.57 47.35 153.36 47.35"/><polyline class="cls-4" points="211.79 47.35 218.59 47.35 218.59 2.3 211.79 2.3"/><text class="cls-5" transform="translate(225.21 33.95)">×2</text><polyline class="cls-4" points="153.36 80.32 146.57 80.32 146.57 125.38 153.36 125.38"/><polyline class="cls-4" points="211.79 125.38 218.59 125.38 218.59 80.32 211.79 80.32"/><text class="cls-5" transform="translate(225.21 111.97)">×2</text><polyline class="cls-4" points="153.36 158.35 146.57 158.35 146.57 203.4 153.36 203.4"/><polyline class="cls-4" points="211.79 203.4 218.59 203.4 218.59 158.35 211.79 158.35"/><text class="cls-5" transform="translate(225.21 189.99)">×8</text><polyline class="cls-4" points="153.36 236.37 146.57 236.37 146.57 281.42 153.36 281.42"/><polyline class="cls-4" points="211.79 281.42 218.59 281.42 218.59 236.37 211.79 236.37"/><text class="cls-5" transform="translate(225.21 268.02)">×8</text><polyline class="cls-4" points="153.36 314.39 146.57 314.39 146.57 359.45 153.36 359.45"/><polyline class="cls-4" points="211.79 359.45 218.59 359.45 218.59 314.39 211.79 314.39"/><text class="cls-5" transform="translate(225.21 346.04)">×4</text><polyline class="cls-4" points="153.36 392.41 146.57 392.41 146.57 437.47 153.36 437.47"/><polyline class="cls-4" points="211.79 437.47 218.59 437.47 218.59 392.41 211.79 392.41"/><text class="cls-5" transform="translate(225.21 424.06)">×3</text><path class="cls-1" d="M236.91,517.52h-2.06v-10.7q0-1.43.09-4.23a14.43,14.43,0,0,1-1.42,1.32l-1.72,1.42-1.14-1.44,4.49-3.5h1.76Z"/><path class="cls-1" d="M245.52,517.54v-1.83a5.55,5.55,0,0,0,1.95.3,4.72,4.72,0,0,0,3.94-1.66,8.85,8.85,0,0,0,1.44-5.23h-.14a3.86,3.86,0,0,1-3.61,2,4.65,4.65,0,0,1-3.57-1.38,5.41,5.41,0,0,1-1.3-3.82,6,6,0,0,1,1.42-4.22,5.27,5.27,0,0,1,7.87.45A9,9,0,0,1,255,507.7q0,10.05-7.49,10.05A8.07,8.07,0,0,1,245.52,517.54Zm.78-11.63a3.86,3.86,0,0,0,.8,2.61,2.89,2.89,0,0,0,2.29.91,3.52,3.52,0,0,0,2.5-.95,2.93,2.93,0,0,0,1-2.16,5.13,5.13,0,0,0-.94-3.07,2.94,2.94,0,0,0-2.5-1.31,2.83,2.83,0,0,0-2.33,1A4.53,4.53,0,0,0,246.3,505.91Z"/><path class="cls-1" d="M269.36,517.52H258.68v-1.83l4.11-4.46a28.19,28.19,0,0,0,3-3.72,5.26,5.26,0,0,0,.72-2.71,2.86,2.86,0,0,0-.74-2.09,2.69,2.69,0,0,0-2-.77,5.73,5.73,0,0,0-3.73,1.61l-1.19-1.39a7.23,7.23,0,0,1,4.94-2,5,5,0,0,1,3.59,1.24,4.4,4.4,0,0,1,1.31,3.34,6.7,6.7,0,0,1-.69,2.86,21.2,21.2,0,0,1-3.41,4.4l-3.29,3.5v.09h8.06Z"/><path class="cls-1" d="M236.16,534.5v.07q4.23.54,4.23,4.07a4.64,4.64,0,0,1-1.62,3.75,7,7,0,0,1-4.67,1.36,9.63,9.63,0,0,1-4.54-.92v-2a9.6,9.6,0,0,0,4.49,1.12q4.15,0,4.15-3.39,0-3-4.47-3h-1.55v-1.77h1.55a4.34,4.34,0,0,0,2.91-.89,3,3,0,0,0,1-2.36,2.4,2.4,0,0,0-.79-1.89,3.19,3.19,0,0,0-2.14-.7,6.8,6.8,0,0,0-4,1.42l-1.08-1.46a8,8,0,0,1,5.11-1.76,5.63,5.63,0,0,1,3.77,1.16,3.86,3.86,0,0,1,1.35,3.09,4,4,0,0,1-1,2.71A4.54,4.54,0,0,1,236.16,534.5Z"/><path class="cls-1" d="M251.38,534.45c2.42,1.25,3.62,2.78,3.62,4.6a4.31,4.31,0,0,1-1.47,3.41,5.73,5.73,0,0,1-3.9,1.29,5.87,5.87,0,0,1-3.95-1.21,4.21,4.21,0,0,1-1.42-3.39q0-3,3.3-4.61a5,5,0,0,1-2.75-4.32,3.66,3.66,0,0,1,1.36-3,5.35,5.35,0,0,1,3.46-1.1,5.29,5.29,0,0,1,3.49,1.11,3.71,3.71,0,0,1,1.33,3Q254.45,532.94,251.38,534.45Zm-2.06.91c-2,.95-3,2.22-3,3.81,0,1.88,1.08,2.81,3.24,2.81a3.65,3.65,0,0,0,2.47-.76,2.9,2.9,0,0,0,.13-4,8.36,8.36,0,0,0-2.51-1.68Zm.33-1.78c1.81-.8,2.72-1.89,2.72-3.26a2.22,2.22,0,0,0-.74-1.8,3,3,0,0,0-2-.62,2.91,2.91,0,0,0-2,.62,2.21,2.21,0,0,0-.73,1.8,2.77,2.77,0,0,0,.58,1.79A5.92,5.92,0,0,0,249.65,533.58Z"/><path class="cls-1" d="M270,539.68h-2.5v3.84h-2.06v-3.84h-7.92v-1.87l7.78-11.52h2.2v11.44H270Zm-4.56-1.95v-4.17c0-1.38,0-3.06.15-5.06h-.1a9.17,9.17,0,0,1-1.06,2.1l-4.81,7.13Z"/><polygon class="cls-1" points="220.42 544.9 213.12 544.9 213.12 498.84 220.42 498.84 220.42 499.84 214.12 499.84 214.12 543.9 220.42 543.9 220.42 544.9"/><polygon class="cls-1" points="286.14 544.9 278.85 544.9 278.85 543.9 285.14 543.9 285.14 499.84 278.85 499.84 278.85 498.84 286.14 498.84 286.14 544.9"/><text class="cls-2" transform="translate(292.27 530.99)">×4</text><path class="cls-6" d="M488.52,569.64h-2.06v-10.7q0-1.43.09-4.23a15.21,15.21,0,0,1-1.41,1.33l-1.73,1.42L482.28,556l4.48-3.5h1.76Z"/><path class="cls-6" d="M506.57,569.64H495.89v-1.82l4.11-4.47a26.92,26.92,0,0,0,3-3.72,5.25,5.25,0,0,0,.72-2.7,2.86,2.86,0,0,0-.74-2.09,2.65,2.65,0,0,0-2-.77,5.72,5.72,0,0,0-3.73,1.6l-1.19-1.39a7.28,7.28,0,0,1,4.94-2,5,5,0,0,1,3.59,1.25,4.38,4.38,0,0,1,1.31,3.34,6.7,6.7,0,0,1-.69,2.86,21.21,21.21,0,0,1-3.41,4.39l-3.29,3.5v.1h8.06Z"/><path class="cls-6" d="M517.4,560.57q3.61,1.88,3.62,4.61a4.3,4.3,0,0,1-1.48,3.41,5.7,5.7,0,0,1-3.9,1.29,5.89,5.89,0,0,1-3.95-1.22,4.21,4.21,0,0,1-1.42-3.39q0-3,3.31-4.6a5,5,0,0,1-2.76-4.33,3.65,3.65,0,0,1,1.37-3,6,6,0,0,1,6.94,0,3.74,3.74,0,0,1,1.34,3C520.47,558.16,519.44,559.57,517.4,560.57Zm-2.07.92q-3,1.41-3,3.81,0,2.81,3.23,2.81a3.62,3.62,0,0,0,2.47-.77,2.9,2.9,0,0,0,.13-4,8.48,8.48,0,0,0-2.5-1.68Zm.33-1.78c1.82-.81,2.72-1.89,2.72-3.26a2.22,2.22,0,0,0-.74-1.81,3,3,0,0,0-2-.62,3,3,0,0,0-2,.62,2.25,2.25,0,0,0-.73,1.81,2.79,2.79,0,0,0,.58,1.79A6.28,6.28,0,0,0,515.66,559.71Z"/><path class="cls-6" d="M536.88,433h-2.06v-10.7q0-1.42.09-4.23a14.34,14.34,0,0,1-1.42,1.33l-1.72,1.42-1.13-1.45,4.48-3.5h1.76Z"/><path class="cls-6" d="M554.93,433H544.25v-1.83l4.1-4.46a26.43,26.43,0,0,0,3-3.72,5.25,5.25,0,0,0,.72-2.7,2.88,2.88,0,0,0-.74-2.09,2.65,2.65,0,0,0-2-.77,5.72,5.72,0,0,0-3.73,1.6l-1.19-1.39a7.26,7.26,0,0,1,4.94-2,5,5,0,0,1,3.59,1.25,4.38,4.38,0,0,1,1.31,3.34,6.7,6.7,0,0,1-.69,2.86,21.21,21.21,0,0,1-3.41,4.39l-3.29,3.5v.1h8.06Z"/><path class="cls-6" d="M565.76,423.88q3.62,1.88,3.62,4.61a4.33,4.33,0,0,1-1.48,3.41,5.7,5.7,0,0,1-3.9,1.29,5.87,5.87,0,0,1-4-1.22,4.2,4.2,0,0,1-1.42-3.39q0-3,3.31-4.6a5,5,0,0,1-2.76-4.33,3.65,3.65,0,0,1,1.37-3,6,6,0,0,1,6.94,0,3.74,3.74,0,0,1,1.34,3C568.83,421.47,567.8,422.87,565.76,423.88Zm-2.07.92q-3,1.41-3,3.8,0,2.82,3.23,2.82a3.64,3.64,0,0,0,2.47-.77,2.9,2.9,0,0,0,.13-4,8.62,8.62,0,0,0-2.5-1.68ZM564,423c1.81-.81,2.72-1.9,2.72-3.26A2.25,2.25,0,0,0,566,418a3.08,3.08,0,0,0-2-.62,3,3,0,0,0-2,.62,2.25,2.25,0,0,0-.73,1.81,2.74,2.74,0,0,0,.58,1.78A6,6,0,0,0,564,423Z"/><path class="cls-6" d="M540.53,459H529.85v-1.83l4.1-4.46a26.16,26.16,0,0,0,3-3.72,5.16,5.16,0,0,0,.73-2.7,2.88,2.88,0,0,0-.74-2.09,2.65,2.65,0,0,0-2-.77,5.7,5.7,0,0,0-3.73,1.6l-1.2-1.39a7.28,7.28,0,0,1,5-2,5,5,0,0,1,3.59,1.25,4.38,4.38,0,0,1,1.31,3.34,6.7,6.7,0,0,1-.69,2.86,21.21,21.21,0,0,1-3.41,4.39l-3.3,3.5v.1h8.07Z"/><path class="cls-6" d="M544.42,458.26v-2a7.43,7.43,0,0,0,4.22,1.12q3.93,0,3.93-3.68c0-2.3-1.34-3.44-4-3.44a16,16,0,0,0-2.71.3l-1.05-.67.64-8.06h8.09v1.95h-6.23l-.46,4.91a13,13,0,0,1,2.45-.24,5.83,5.83,0,0,1,4,1.34,4.67,4.67,0,0,1,1.51,3.68,5.49,5.49,0,0,1-1.61,4.23,6.46,6.46,0,0,1-4.56,1.5A8.05,8.05,0,0,1,544.42,458.26Z"/><path class="cls-6" d="M568.11,441.8v1.81a6.25,6.25,0,0,0-1.94-.28,4.76,4.76,0,0,0-3.95,1.65c-.88,1.11-1.35,2.85-1.43,5.24h.14a3.8,3.8,0,0,1,3.6-2,4.66,4.66,0,0,1,3.58,1.39,5.39,5.39,0,0,1,1.29,3.81,6,6,0,0,1-1.41,4.22,4.92,4.92,0,0,1-3.79,1.54,4.85,4.85,0,0,1-4.07-2,8.93,8.93,0,0,1-1.52-5.58q0-10,7.49-10.06A7.51,7.51,0,0,1,568.11,441.8Zm-.77,11.63a3.86,3.86,0,0,0-.8-2.61,2.9,2.9,0,0,0-2.3-.91,3.49,3.49,0,0,0-2.49.94,2.93,2.93,0,0,0-1,2.17,5.08,5.08,0,0,0,1,3.08,2.94,2.94,0,0,0,2.48,1.29,2.82,2.82,0,0,0,2.33-1A4.51,4.51,0,0,0,567.34,453.43Z"/><path class="cls-6" d="M547.73,485H537.05v-1.83l4.1-4.46a25.45,25.45,0,0,0,3-3.72,5.16,5.16,0,0,0,.73-2.7,2.88,2.88,0,0,0-.74-2.09,2.65,2.65,0,0,0-2-.77,5.7,5.7,0,0,0-3.73,1.6l-1.19-1.39a7.26,7.26,0,0,1,4.94-2,5,5,0,0,1,3.59,1.25,4.38,4.38,0,0,1,1.31,3.34,6.7,6.7,0,0,1-.69,2.86,21.21,21.21,0,0,1-3.41,4.39l-3.3,3.5v.1h8.07Z"/><path class="cls-6" d="M553.52,485l6.59-15.18h-8.83v-1.95h11v1.7L555.79,485Z"/><polyline class="cls-4" points="520.39 414.78 513.59 414.78 513.59 459.83 520.39 459.83"/><polyline class="cls-4" points="578.82 459.83 585.61 459.83 585.61 414.78 578.82 414.78"/><text class="cls-5" transform="translate(592.24 446.42)">×3</text><path class="cls-6" d="M302.8,449.36H292.12v-1.83l4.11-4.47a26.92,26.92,0,0,0,3-3.72,5.22,5.22,0,0,0,.72-2.7,2.86,2.86,0,0,0-.74-2.09,2.69,2.69,0,0,0-2-.77,5.73,5.73,0,0,0-3.73,1.61l-1.19-1.4a7.27,7.27,0,0,1,4.94-2,5,5,0,0,1,3.59,1.24,4.4,4.4,0,0,1,1.31,3.34,6.7,6.7,0,0,1-.69,2.86,21.21,21.21,0,0,1-3.41,4.39l-3.29,3.51v.09h8.06Z"/><path class="cls-6" d="M306.69,448.66v-2a7.43,7.43,0,0,0,4.22,1.12c2.62,0,3.94-1.22,3.94-3.68q0-3.43-4-3.44a15.93,15.93,0,0,0-2.7.3l-1.06-.67.65-8.06h8.08v1.95h-6.23l-.46,4.91a13,13,0,0,1,2.45-.24,5.76,5.76,0,0,1,4,1.35,4.64,4.64,0,0,1,1.52,3.67,5.49,5.49,0,0,1-1.62,4.24,6.5,6.5,0,0,1-4.56,1.49A8.05,8.05,0,0,1,306.69,448.66Z"/><path class="cls-6" d="M330.39,432.2V434a6.06,6.06,0,0,0-1.95-.29,4.72,4.72,0,0,0-3.94,1.66,8.85,8.85,0,0,0-1.44,5.23h.14a3.82,3.82,0,0,1,3.6-2,4.65,4.65,0,0,1,3.58,1.4,5.39,5.39,0,0,1,1.29,3.81,6,6,0,0,1-1.41,4.21,5.29,5.29,0,0,1-7.86-.44,9,9,0,0,1-1.52-5.58q0-10,7.49-10A7.68,7.68,0,0,1,330.39,432.2Zm-.78,11.64a3.87,3.87,0,0,0-.8-2.62,2.89,2.89,0,0,0-2.29-.91,3.48,3.48,0,0,0-2.5.95,2.9,2.9,0,0,0-1,2.17,5.07,5.07,0,0,0,.95,3.07,3,3,0,0,0,2.49,1.3,2.83,2.83,0,0,0,2.32-1A4.54,4.54,0,0,0,329.61,443.84Z"/><path class="cls-6" d="M386.33,517.5H375.65v-1.83l4.1-4.47a25.45,25.45,0,0,0,3-3.72,5.11,5.11,0,0,0,.73-2.7,2.9,2.9,0,0,0-.74-2.09,2.69,2.69,0,0,0-2-.77,5.71,5.71,0,0,0-3.73,1.61l-1.2-1.4a7.27,7.27,0,0,1,4.95-2,5,5,0,0,1,3.59,1.24,4.4,4.4,0,0,1,1.31,3.34,6.7,6.7,0,0,1-.69,2.86,21,21,0,0,1-3.41,4.39l-3.3,3.51v.09h8.07Z"/><path class="cls-6" d="M390.22,516.8v-2a7.43,7.43,0,0,0,4.22,1.12c2.62,0,3.93-1.22,3.93-3.68q0-3.44-4-3.44a15.83,15.83,0,0,0-2.7.3l-1.06-.66.64-8.07h8.09v1.95h-6.23l-.46,4.91a13,13,0,0,1,2.45-.24,5.76,5.76,0,0,1,4,1.35,4.64,4.64,0,0,1,1.51,3.67,5.48,5.48,0,0,1-1.61,4.24,6.5,6.5,0,0,1-4.56,1.49A8.05,8.05,0,0,1,390.22,516.8Z"/><path class="cls-6" d="M413.91,500.34v1.82a6,6,0,0,0-1.94-.28,4.76,4.76,0,0,0-4,1.65c-.88,1.1-1.35,2.85-1.43,5.24h.14a3.81,3.81,0,0,1,3.6-2,4.66,4.66,0,0,1,3.58,1.4A5.39,5.39,0,0,1,415.2,512a6,6,0,0,1-1.41,4.21,5.3,5.3,0,0,1-7.86-.43,9,9,0,0,1-1.52-5.59q0-10.05,7.49-10.05A7.55,7.55,0,0,1,413.91,500.34ZM413.14,512a3.87,3.87,0,0,0-.8-2.62,2.89,2.89,0,0,0-2.29-.91,3.51,3.51,0,0,0-2.5.95,2.9,2.9,0,0,0-1,2.17,5.07,5.07,0,0,0,.95,3.07,2.92,2.92,0,0,0,2.48,1.3,2.85,2.85,0,0,0,2.33-1A4.54,4.54,0,0,0,413.14,512Z"/><path class="cls-6" d="M375.81,542.8v-2a7.48,7.48,0,0,0,4.22,1.12c2.63,0,3.94-1.22,3.94-3.68q0-3.43-4-3.44a15.93,15.93,0,0,0-2.71.3l-1.05-.66.64-8.07h8.09v1.95h-6.24l-.45,4.91a13,13,0,0,1,2.45-.24,5.74,5.74,0,0,1,4,1.35,4.62,4.62,0,0,1,1.52,3.67,5.52,5.52,0,0,1-1.61,4.24,6.5,6.5,0,0,1-4.56,1.49A8.12,8.12,0,0,1,375.81,542.8Z"/><path class="cls-6" d="M397.08,543.5H395V532.8c0-1,0-2.37.1-4.23a19.28,19.28,0,0,1-1.42,1.32L392,531.31l-1.13-1.44,4.49-3.51h1.75Z"/><path class="cls-6" d="M415.13,543.5H404.46v-1.83l4.1-4.47a26.92,26.92,0,0,0,3-3.72,5.2,5.2,0,0,0,.73-2.7,2.86,2.86,0,0,0-.75-2.09,2.66,2.66,0,0,0-2-.77,5.73,5.73,0,0,0-3.73,1.61l-1.19-1.4a7.27,7.27,0,0,1,4.94-2,5,5,0,0,1,3.59,1.24,4.36,4.36,0,0,1,1.31,3.34,6.7,6.7,0,0,1-.69,2.86,21,21,0,0,1-3.41,4.39l-3.29,3.51v.09h8.06Z"/><path class="cls-6" d="M393.53,569.5H382.85v-1.83l4.1-4.47a26.43,26.43,0,0,0,3-3.72,5.2,5.2,0,0,0,.72-2.7,2.9,2.9,0,0,0-.74-2.09,2.69,2.69,0,0,0-2-.77,5.73,5.73,0,0,0-3.73,1.61l-1.19-1.4a7.25,7.25,0,0,1,4.94-2,5,5,0,0,1,3.59,1.24,4.4,4.4,0,0,1,1.31,3.34,6.7,6.7,0,0,1-.69,2.86,21,21,0,0,1-3.41,4.39l-3.29,3.51v.09h8.06Z"/><path class="cls-6" d="M399.32,569.5l6.59-15.19h-8.83v-1.95h11v1.7l-6.5,15.44Z"/><polyline class="cls-4" points="366.19 499.34 359.39 499.34 359.39 544.4 366.19 544.4"/><polyline class="cls-4" points="424.62 544.4 431.41 544.4 431.41 499.34 424.62 499.34"/><text class="cls-5" transform="translate(438.04 530.99)">×3</text><line class="cls-4" x1="215.19" y1="440.78" x2="269.57" y2="440.78"/><polygon class="cls-7" points="268.11 445.77 276.74 440.78 268.11 435.8 268.11 445.77"/><line class="cls-4" x1="346.44" y1="440.78" x2="373.34" y2="440.78"/><polygon class="cls-7" points="371.88 445.77 380.52 440.78 371.88 435.8 371.88 445.77"/><line class="cls-4" x1="419.3" y1="560.93" x2="467.1" y2="560.93"/><polygon class="cls-7" points="465.64 565.92 474.28 560.93 465.64 555.94 465.64 565.92"/><line class="cls-4" x1="404.77" y1="462.12" x2="404.77" y2="478.48"/><polygon class="cls-7" points="399.79 477.02 404.77 485.65 409.76 477.02 399.79 477.02"/><ellipse class="cls-8" cx="187.11" cy="336.92" rx="70.24" ry="28.27"/><ellipse class="cls-8" cx="187.11" cy="414.94" rx="70.24" ry="28.27"/><ellipse class="cls-8" cx="401.56" cy="521.87" rx="70.24" ry="28.27"/><polyline class="cls-4" points="215.19 207.38 404.77 207.38 404.77 409.27"/><polygon class="cls-7" points="399.79 407.81 404.77 416.45 409.76 407.81 399.79 407.81"/><circle class="cls-9" cx="404.77" cy="440.31" r="12.46"/><polyline class="cls-4" points="501.23 543.08 501.23 362.81 525.8 362.81"/><polygon class="cls-7" points="524.34 367.79 532.98 362.81 524.34 357.82 524.34 367.79"/><line class="cls-4" x1="557.23" y1="384.14" x2="557.23" y2="400.5"/><polygon class="cls-7" points="552.24 399.04 557.23 407.68 562.21 399.04 552.24 399.04"/><polyline class="cls-4" points="214.75 129.4 557.23 129.4 557.23 331.3"/><polygon class="cls-7" points="552.24 329.84 557.23 338.47 562.21 329.84 552.24 329.84"/><circle class="cls-9" cx="557.23" cy="362.33" r="12.46"/></g></g></svg>